<!-- icon666.com - MILLIONS OF FREE VECTOR ICONS --><svg clip-rule="evenodd" fill-rule="evenodd" image-rendering="optimizeQuality" shape-rendering="geometricPrecision" text-rendering="geometricPrecision" viewBox="0 0 43.3492 43.3492" xmlns="http://www.w3.org/2000/svg"><g id="Layer_x0020_1"><g fill="#4b4439" fill-rule="nonzero"><path d="m39.5251 25.5209c.4809.4782 1.0401.5256 1.4964.3284.1877-.0812.3626-.2032.5127-.3541.1483-.1492.269-.325.35-.5155.1948-.4575.1447-1.0162-.3355-1.4938l-18.8588-18.7989c-.2826-.2816-.6523-.422-1.0214-.4213-.3675.0006-.7355.1421-1.0164.4241-4.3143 4.3329-8.6506 8.646-12.9863 12.9584-1.9559 1.9454-3.9118 3.8908-5.8653 5.8377-.4802.4776-.5303 1.0363-.3355 1.4938.081.1906.2017.3663.35.5155.1501.1509.3249.2729.5127.3541.4563.1972 1.0155.1498 1.4964-.3284l17.3722-17.3134-.0013-.0014c.2646-.2637.693-.263.9567.0017.0116.0116.0226.0235.0332.0357zm2.0302 1.5651c-.9272.4008-2.0459.322-2.9816-.6085l-16.9011-16.8398-16.8971 16.8398c-.9356.9305-2.0543 1.0093-2.9816.6085-.3503-.1514-.6692-.3716-.9355-.6394-.2681-.2696-.487-.5895-.6355-.9383-.3955-.9294-.3102-2.0478.6262-2.979 1.9536-1.9469 3.9095-3.8923 5.8653-5.8377 4.3345-4.3113 8.6697-8.6232 12.981-12.9532.5436-.5456 1.2579-.8192 1.9731-.8205.7137-.0013 1.4278.2694 1.9728.8124l18.8588 18.799c.9363.9313 1.0217 2.0496.6262 2.979-.1485.3488-.3674.6687-.6355.9383-.2663.2678-.5852.488-.9355.6394z"></path><path d="m36.3253 22.6109c0-.3736-.3029-.6765-.6765-.6765s-.6765.3029-.6765.6765v16.4752h-26.5954v-16.4752c0-.3736-.3029-.6765-.6765-.6765s-.6765.3029-.6765.6765v17.1518c0 .3736.3029.6765.6765.6765h27.9484c.3736 0 .6765-.3029.6765-.6765z"></path><path d="m17.9327 28.0167h7.4839c.3736 0 .6765.3029.6765.6765v11.0695c0 .3736-.3029.6765-.6765.6765h-7.4839c-.3736 0-.6765-.3029-.6765-.6765v-11.0695c0-.3736.3029-.6765.6765-.6765zm6.8074 1.353h-6.1309v9.7164h6.1309z"></path><path d="m21.6746 15.1581c1.0128 0 1.9299.4106 2.5936 1.0744.6638.6637 1.0744 1.5808 1.0744 2.5936s-.4106 1.9299-1.0744 2.5936c-.6637.6638-1.5808 1.0744-2.5936 1.0744s-1.9299-.4106-2.5936-1.0744c-.6638-.6637-1.0744-1.5808-1.0744-2.5936s.4106-1.9299 1.0744-2.5936c.6637-.6638 1.5808-1.0744 2.5936-1.0744zm1.637 2.031c-.4189-.4189-.9977-.678-1.637-.678s-1.2181.2591-1.637.678-.678.9977-.678 1.637.2591 1.2181.678 1.637.9977.678 1.637.678 1.2181-.2591 1.637-.678.678-.9977.678-1.637-.2591-1.2181-.678-1.637z"></path></g><path d="m24.7401 29.3697h-6.1309v9.7164h6.1309z" fill="#c5e1a5"></path><path d="m26.0931 28.6932v10.3929h8.8792v-16.1969l-13.2997-13.2515-13.2957 13.2506v16.1978h8.8793v-10.3929c0-.3736.3029-.6765.6765-.6765h7.4839c.3736 0 .6765.3029.6765.6765zm-.7505-9.8671c0 1.0128-.4106 1.9299-1.0744 2.5936-.6637.6638-1.5808 1.0744-2.5936 1.0744s-1.9299-.4106-2.5936-1.0744c-.6638-.6637-1.0744-1.5808-1.0744-2.5936s.4106-1.9299 1.0744-2.5936c.6637-.6638 1.5808-1.0744 2.5936-1.0744s1.9299.4106 2.5936 1.0744c.6638.6637 1.0744 1.5808 1.0744 2.5936z" fill="#f0f4c3"></path><path d="m22.1849 8.2435 13.9038 13.8535c1.0918.9334 2.3827 2.374 3.4364 3.4239.4809.4782 1.0401.5256 1.4964.3284.1877-.0812.3626-.2032.5127-.3541.1483-.1492.269-.325.35-.5155.1948-.4575.1447-1.0162-.3355-1.4938l-18.8588-18.7989c-.2826-.2816-.6523-.422-1.0214-.4213-.3675.0006-.7355.1421-1.0164.4241-4.3143 4.3329-8.6506 8.646-12.9863 12.9584-1.9559 1.9454-3.9118 3.8908-5.8653 5.8377-.4802.4776-.5303 1.0363-.3355 1.4938.081.1906.2017.3663.35.5155.1501.1509.3249.2729.5127.3541.4563.1972 1.0155.1498 1.4964-.3284l3.3693-3.3579c.019-.0215.0392-.0417.0608-.0605l13.9421-13.895c-.0004-.0005.7091-.2875.9886.036z" fill="#c5e1a5"></path><path d="m23.9896 18.8261c0-.6393-.2591-1.2181-.678-1.637s-.9977-.678-1.637-.678-1.2181.2591-1.637.678-.678.9977-.678 1.637.2591 1.2181.678 1.637.9977.678 1.637.678 1.2181-.2591 1.637-.678.678-.9977.678-1.637z" fill="#f5f5f5"></path><path d="m34.9723 23.7614v-.8722l-13.2997-13.2515-13.2957 13.2506v.872l12.8194-12.7761-.0013-.0013c.2646-.2637.693-.263.9567.0016.0116.0116.0226.0236.0332.0358l11.5245 11.4827c.0056.0351.0085.0712.0085.1079v16.4752h1.2544z" fill="#b4b894"></path><path d="m22.2919 16.5943c.4748.6183.757 1.3921.757 2.2318 0 .8396-.2822 1.6135-.757 2.2318.3912-.108.7409-.316 1.0197-.5948.4189-.4189.678-.9977.678-1.637s-.2591-1.2181-.678-1.637c-.2788-.2788-.6285-.4868-1.0197-.5948z" fill="#b9b9b9"></path><path d="m23.6971 29.3697v9.7164h1.043v-9.7164z" fill="#95aa7e"></path></g></svg>