<!-- icon666.com - MILLIONS OF FREE VECTOR ICONS --><svg id="Capa_1" enable-background="new 0 0 512 512" viewBox="0 0 512 512" xmlns="http://www.w3.org/2000/svg"><g id="Folders_5_"><g id="Color_91_"><g><g><path d="m272.021 504.5h36.479c16.569 0 30-13.431 30-30l40-218.5-40-218.5c0-16.569-13.431-30-30-30h-62.889l-54.611 35.5v431.5z" fill="#ffe54e" style="fill: rgb(77, 195, 255);"></path><path d="m245.611 7.5h-42.111c-16.569 0-30 13.431-30 30l-40 218.5 40 218.5c0 16.569 13.431 30 30 30h68.521c-41.273-80.723-65.137-176.194-65.137-278.5 0-77.971 13.862-151.972 38.727-218.5z" fill="#ffdb2f" style="fill: rgb(81, 187, 240);"></path></g><g><path d="m226 245c0 8.284 6.716 15 15 15h30c8.284 0 15-6.716 15-15v-125l-30-20-30 20z" fill="#f5f5fd"></path><path d="m286 120h-60v-45c0-8.284 6.716-15 15-15h30c8.284 0 15 6.716 15 15z" fill="#c2eafb"></path></g><g><path d="m269.578 451.258c9.745-4.954 16.422-15.076 16.422-26.758 0-16.569-13.431-30-30-30-.879 0-1.749.038-2.608.112l-17.725 9.721 13.667 46.925z" fill="#f5f5fd"></path><path d="m249 414.5c0-7.255 1.6-14.051 4.391-19.888-15.346 1.322-27.391 14.198-27.391 29.888 0 16.569 13.431 30 30 30 4.887 0 9.501-1.169 13.578-3.242-12.036-5.682-20.578-19.996-20.578-36.758z" fill="#ececf6"></path></g></g><g><g><path d="m107.021 504.5h36.479c16.569 0 30-13.431 30-30v-437c0-16.569-13.431-30-30-30h-62.889l-54.611 35.5v431.5z" fill="#c7aee4" style="fill: rgb(181, 228, 175);"></path><path d="m80.611 7.5h-42.111c-16.569 0-30 13.431-30 30v437c0 16.569 13.431 30 30 30h68.521c-41.273-80.723-65.137-176.194-65.137-278.5 0-77.971 13.862-151.972 38.727-218.5z" fill="#bd9cde" style="fill: rgb(173, 215, 167);"></path></g><g><path d="m61 245c0 8.284 6.716 15 15 15h30c8.284 0 15-6.716 15-15v-125l-30-20-30 20z" fill="#f5f5fd"></path><path d="m121 120h-60v-45c0-8.284 6.716-15 15-15h30c8.284 0 15 6.716 15 15z" fill="#c2eafb"></path></g><g><path d="m104.578 451.258c9.745-4.954 16.422-15.076 16.422-26.758 0-16.569-13.431-30-30-30-.879 0-1.749.038-2.608.112l-17.725 9.721 13.667 46.925z" fill="#f5f5fd"></path><path d="m84 414.5c0-7.255 1.6-14.051 4.391-19.888-15.346 1.322-27.391 14.198-27.391 29.888 0 16.569 13.431 30 30 30 4.887 0 9.501-1.169 13.578-3.242-12.036-5.682-20.578-19.996-20.578-36.758z" fill="#ececf6"></path></g></g><g><g><path d="m437.021 504.5h36.479c16.569 0 30-13.431 30-30v-437c0-16.569-13.431-30-30-30h-62.889l-54.611 35.5v431.5z" fill="#85a4e4"></path><path d="m410.611 7.5h-42.111c-16.569 0-30 13.431-30 30v437c0 16.569 13.431 30 30 30h68.521c-41.273-80.723-65.137-176.194-65.137-278.5 0-77.971 13.862-151.972 38.727-218.5z" fill="#7293df"></path></g><g><path d="m391 245c0 8.284 6.716 15 15 15h30c8.284 0 15-6.716 15-15v-125l-30-20-30 20z" fill="#f5f5fd"></path><path d="m451 120h-60v-45c0-8.284 6.716-15 15-15h30c8.284 0 15 6.716 15 15z" fill="#c2eafb"></path></g><g><path d="m434.578 451.258c9.745-4.954 16.422-15.076 16.422-26.758 0-16.569-13.431-30-30-30-.879 0-1.749.038-2.608.112l-17.725 9.721 13.667 46.925z" fill="#f5f5fd"></path><path d="m414 414.5c0-7.255 1.6-14.051 4.391-19.888-15.346 1.322-27.391 14.198-27.391 29.888 0 16.569 13.431 30 30 30 4.887 0 9.501-1.169 13.578-3.242-12.036-5.682-20.578-19.996-20.578-36.758z" fill="#ececf6"></path></g></g></g><g id="Lineal_Expanded_96_"><g><path d="m76 267.5h30c12.407 0 22.5-10.094 22.5-22.5v-170c0-12.406-10.093-22.5-22.5-22.5h-30c-12.407 0-22.5 10.094-22.5 22.5v170c0 12.406 10.093 22.5 22.5 22.5zm-7.5-192.5c0-4.136 3.364-7.5 7.5-7.5h30c4.136 0 7.5 3.364 7.5 7.5v37.5h-45zm0 52.5h45v117.5c0 4.136-3.364 7.5-7.5 7.5h-30c-4.136 0-7.5-3.364-7.5-7.5z" fill="#000000"></path><path d="m91 462c20.678 0 37.5-16.822 37.5-37.5s-16.822-37.5-37.5-37.5-37.5 16.822-37.5 37.5 16.822 37.5 37.5 37.5zm0-60c12.407 0 22.5 10.094 22.5 22.5s-10.093 22.5-22.5 22.5-22.5-10.094-22.5-22.5 10.093-22.5 22.5-22.5z" fill="#000000"></path><g><path d="m61 314.75h60c4.142 0 7.5-3.357 7.5-7.5s-3.358-7.5-7.5-7.5h-60c-4.142 0-7.5 3.357-7.5 7.5s3.358 7.5 7.5 7.5z" fill="#000000"></path><path d="m61 354.75h60c4.142 0 7.5-3.357 7.5-7.5s-3.358-7.5-7.5-7.5h-60c-4.142 0-7.5 3.357-7.5 7.5s3.358 7.5 7.5 7.5z" fill="#000000"></path></g></g><g><path d="m271 52.5h-30c-12.407 0-22.5 10.094-22.5 22.5v170c0 12.406 10.093 22.5 22.5 22.5h30c12.406 0 22.5-10.094 22.5-22.5v-170c0-12.406-10.094-22.5-22.5-22.5zm7.5 192.5c0 4.136-3.364 7.5-7.5 7.5h-30c-4.136 0-7.5-3.364-7.5-7.5v-117.5h45zm0-132.5h-45v-37.5c0-4.136 3.364-7.5 7.5-7.5h30c4.136 0 7.5 3.364 7.5 7.5z" fill="#000000"></path><path d="m256 387c-20.678 0-37.5 16.822-37.5 37.5s16.822 37.5 37.5 37.5 37.5-16.822 37.5-37.5-16.822-37.5-37.5-37.5zm0 60c-12.407 0-22.5-10.094-22.5-22.5s10.093-22.5 22.5-22.5c12.406 0 22.5 10.094 22.5 22.5s-10.094 22.5-22.5 22.5z" fill="#000000"></path><g><path d="m286 299.75h-60c-4.142 0-7.5 3.357-7.5 7.5s3.358 7.5 7.5 7.5h60c4.143 0 7.5-3.357 7.5-7.5s-3.357-7.5-7.5-7.5z" fill="#000000"></path><path d="m286 339.75h-60c-4.142 0-7.5 3.357-7.5 7.5s3.358 7.5 7.5 7.5h60c4.143 0 7.5-3.357 7.5-7.5s-3.357-7.5-7.5-7.5z" fill="#000000"></path></g></g><g><path d="m458.5 75c0-12.406-10.094-22.5-22.5-22.5h-30c-12.406 0-22.5 10.094-22.5 22.5v170c0 12.406 10.094 22.5 22.5 22.5h30c12.406 0 22.5-10.094 22.5-22.5zm-15 170c0 4.136-3.364 7.5-7.5 7.5h-30c-4.136 0-7.5-3.364-7.5-7.5v-117.5h45zm0-132.5h-45v-37.5c0-4.136 3.364-7.5 7.5-7.5h30c4.136 0 7.5 3.364 7.5 7.5z" fill="#000000"></path><path d="m421 387c-20.678 0-37.5 16.822-37.5 37.5s16.822 37.5 37.5 37.5 37.5-16.822 37.5-37.5-16.822-37.5-37.5-37.5zm0 60c-12.406 0-22.5-10.094-22.5-22.5s10.094-22.5 22.5-22.5 22.5 10.094 22.5 22.5-10.094 22.5-22.5 22.5z" fill="#000000"></path><g><path d="m451 299.75h-60c-4.143 0-7.5 3.357-7.5 7.5s3.357 7.5 7.5 7.5h60c4.143 0 7.5-3.357 7.5-7.5s-3.357-7.5-7.5-7.5z" fill="#000000"></path><path d="m451 339.75h-60c-4.143 0-7.5 3.357-7.5 7.5s3.357 7.5 7.5 7.5h60c4.143 0 7.5-3.357 7.5-7.5s-3.357-7.5-7.5-7.5z" fill="#000000"></path></g></g><path d="m503.5 414.5c4.143 0 7.5-3.357 7.5-7.5v-369.5c0-20.678-16.822-37.5-37.5-37.5h-105c-12.253 0-23.153 5.908-30 15.024-6.847-9.116-17.747-15.024-30-15.024h-105c-12.253 0-23.153 5.908-30 15.024-6.847-9.116-17.747-15.024-30-15.024h-105c-20.678 0-37.5 16.822-37.5 37.5v82.5c0 4.143 3.358 7.5 7.5 7.5s7.5-3.357 7.5-7.5v-82.5c0-12.406 10.093-22.5 22.5-22.5h105c12.407 0 22.5 10.094 22.5 22.5v437c0 12.406-10.093 22.5-22.5 22.5h-105c-12.407 0-22.5-10.094-22.5-22.5v-319.5c0-4.143-3.358-7.5-7.5-7.5s-7.5 3.357-7.5 7.5v319.5c0 20.678 16.822 37.5 37.5 37.5h105c12.253 0 23.153-5.908 30-15.024 6.847 9.116 17.747 15.024 30 15.024h105c12.253 0 23.153-5.908 30-15.024 6.847 9.116 17.747 15.024 30 15.024h105c20.678 0 37.5-16.822 37.5-37.5v-32.5c0-4.143-3.357-7.5-7.5-7.5s-7.5 3.357-7.5 7.5v32.5c0 12.406-10.094 22.5-22.5 22.5h-105c-12.406 0-22.5-10.094-22.5-22.5v-437c0-12.406 10.094-22.5 22.5-22.5h105c12.406 0 22.5 10.094 22.5 22.5v369.5c0 4.143 3.357 7.5 7.5 7.5zm-172.5 60c0 12.406-10.094 22.5-22.5 22.5h-105c-12.407 0-22.5-10.094-22.5-22.5v-437c0-12.406 10.093-22.5 22.5-22.5h105c12.406 0 22.5 10.094 22.5 22.5z" fill="#000000"></path></g></g></svg>